<svg xmlns="http://www.w3.org/2000/svg" width="2501.63" height="1785.17" viewBox="0 0 2501.63 1785.17"><defs><style>.a,.ae{fill:#fff;}.b{fill:#cfddf9;}.c{fill:#d4e8ff;}.d{fill:#dce6ff;}.e{fill:#eef7ff;}.f{fill:#3a72aa;}.g{fill:#fcb4b4;}.h{fill:#ce4abf;}.i{fill:#8a9edd;}.j{fill:#d7deff;}.k{fill:#eb5648;}.l{fill:#d33f37;}.m{fill:#ce3932;}.n{fill:#f9b233;}.o{fill:#ffc261;}.p{fill:#245084;}.q{fill:#2c6399;}.r{fill:#c3dcfc;}.s{fill:#dcedff;}.t{fill:#f99370;}.u{fill:#103663;}.v{fill:#e8c0a6;}.w{fill:#0f2e54;}.x{fill:#c92828;}.y{fill:#9358e0;}.z{fill:#e57d61;}.aa{fill:#c16256;}.ab{fill:#23659b;}.ac{fill:#7640cc;}.ad{fill:#1d3f70;}.ae{opacity:0.4;}.af{fill:#395b96;}.ag{fill:#163260;}.ah{fill:#234270;}.ai{fill:#0b274f;}.aj{fill:#f4d4be;}.ak{fill:#a523a2;}.al{fill:#f9f8f3;}</style></defs><rect class="a" x="-150.09" y="-107.35" width="2800" height="2000"/><path class="b" d="M.05,1500.32s-5.45,65,98.31,112.46c109,49.82,644.19,23.92,507.22,82.58-97.42,41.73,56.89,74.6,447.2,86,200.69,5.84,1075.78,20.57,870.46-94.23-152.49-85.27,593.71,36.76,575.94-186.79Z"/><path class="c" d="M440,1499S145.27,820,357.37,668.8c141.77-101.06,254.77,118.61,434.13.75,159.68-104.93,21-389.55,240.75-435.29,284-59.11,509.47,515.92,744.44,434.54,285.13-98.75,568.75,101.72,323.65,831.52Z"/><path class="d" d="M209.39,1433.47c-4.95-13.59-9.84-27.68-14.55-41.87l11.6-3.09c4.68,14.09,9.54,28.09,14.46,41.59Zm2075.13-17.56-12-1.33c2-14.47,3.89-29,5.63-43.32l12,1.18C2288.43,1386.77,2286.53,1401.39,2284.52,1415.91Zm-2103-66.49c-4.23-14-8.34-28.3-12.21-42.45l11.76-2.58c3.84,14.06,7.92,28.26,12.13,42.2Zm2113.65-20.52-12.05-1c1.53-14.53,3-29.15,4.21-43.45l12.07.86C2298.09,1299.64,2296.66,1314.31,2295.13,1328.9ZM158.21,1264.27c-3.49-14.28-6.82-28.73-9.88-42.93l11.88-2.06c3,14.11,6.35,28.47,9.82,42.67Zm2144.62-22.65-12.08-.68c1-14.52,1.93-29.17,2.67-43.54l12.09.51C2304.76,1212.34,2303.86,1227,2302.83,1241.62ZM139.66,1178.19c-2.69-14.46-5.19-29-7.41-43.34l12-1.5c2.21,14.21,4.68,28.69,7.35,43.06Zm2167.7-24-12.1-.32c.47-14.59.8-29.25,1-43.58l12.1.11C2308.16,1124.77,2307.83,1139.5,2307.36,1154.16ZM126.18,1091.34c-1.8-14.61-3.38-29.3-4.67-43.67l12.06-.87c1.29,14.26,2.85,28.84,4.64,43.34Zm2170.1-24.67c-.14-14.59-.45-29.25-.92-43.57l12.1-.31c.47,14.38.78,29.12.92,43.79ZM118.34,1003.9c-.8-14.69-1.34-29.44-1.58-43.84l12.1-.17c.24,14.28.77,28.91,1.57,43.48Zm2175.07-24.33c-.83-14.57-1.85-29.2-3-43.47l12.07-.81c1.19,14.36,2.21,29.07,3.05,43.73ZM129,916.39l-12.1-.22c.34-14.73,1-29.49,1.93-43.85l12.09.64C130,887.19,129.3,901.8,129,916.39Zm2157.21-23.68c-1.62-14.57-3.45-29.13-5.44-43.26l12-1.36c2,14.23,3.84,28.88,5.47,43.55ZM134.72,829.63l-12-1.08c1.65-14.68,3.65-29.35,6-43.6l12,1.56C138.33,800.61,136.35,815.12,134.72,829.63ZM2274,806.35c-2.51-14.49-5.28-28.91-8.21-42.89l11.89-2c3,14.08,5.75,28.62,8.28,43.22ZM842.73,804.82c-16.81-2.38-29-9.25-45.83-21.1l7.65-8.41C819.31,785.67,830,791.88,844,794Zm42-25.82-10.78-4.94c5.54-9.73,10.44-23.23,14.56-40.12l11.82,2.31C895.92,754.31,890.81,768.29,884.72,779ZM761.39,752.59c-9.64-9.62-19.94-20.7-31.5-33.87L739.4,712c11.39,13,21.53,23.88,31,33.33Zm-612.69-8.9-11.88-2.06c3.13-14.49,6.68-28.93,10.54-42.93l11.75,2.6C155.3,715.13,151.79,729.39,148.7,743.69ZM2256,720.86c-3.58-14.33-7.45-28.54-11.49-42.23l11.7-2.78c4.08,13.83,8,28.17,11.6,42.64ZM908.46,692.58l-12-1.39c1.86-13,3.52-27.14,5.09-43.36l12.06.93C912,665.14,910.34,679.47,908.46,692.58Zm-208.21-8.82c-9.83-11.92-20-24.51-28.83-35.38l9.8-6.37C690,652.86,700.17,665.43,710,677.3Zm886-.89a55.4,55.4,0,0,1-27.48-7.51l6.45-9.18c13.24,7.49,26.26,7.51,40.32,1.53l5.21,9.8A62.47,62.47,0,0,1,1586.24,682.87ZM172,659.48l-11.57-3.17c4.81-14.1,10.08-28.12,15.68-41.68l11.35,3.76C181.92,631.76,176.72,645.58,172,659.48Zm1478.33-10.34-8.89-7.36a379.05,379.05,0,0,0,30.07-33.61l9.8,6.36A386.67,386.67,0,0,1,1650.31,649.14Zm-126-7.47a326,326,0,0,1-23.73-39l10.94-4.64a315.16,315.16,0,0,0,22.94,37.74Zm706.76-4.8c-4.88-14.06-10.08-27.9-15.46-41.14L2227,592c5.45,13.4,10.71,27.41,15.64,41.64ZM642.74,613c-11.07-13.57-20.3-24.71-29-35l9.65-6.56c8.78,10.4,18,21.59,29.16,35.2Zm274.51-8.06-12.08-.7c.92-12.72,1.85-27,2.86-43.69l12.08.58C919.1,577.85,918.17,592.18,917.25,604.94ZM205.58,578.22l-11.08-4.38q10-20.24,21.25-39.7l10.73,5Q215.38,558.29,205.58,578.22Zm1503.44,0-10.12-6c8.6-11.73,17.49-24.15,26.48-36.7l10.18,5.87C1726.55,554,1717.65,566.44,1709,578.22Zm-227.88-16.05c-5.48-12.33-11.15-25.78-17.32-41.12l11.39-3.69c6.12,15.23,11.74,28.57,17.17,40.79Zm716.7-6.77c-6.5-13.59-13.38-26.79-20.45-39.24l10.78-4.92c7.19,12.66,14.19,26.07,20.8,39.88Zm-1614-11.84c-11-12.23-21.2-23.1-31.24-33.26l9-7.2c10.17,10.28,20.52,21.29,31.62,33.65Zm338.81-26.2-12.09-.55c.82-14.5,1.63-29,2.49-43.77l12.08.57C924.25,488.37,923.44,502.86,922.63,517.36Zm839.46-12.59-10.1-6c10.11-13.72,19.16-25.59,27.65-36.28l9.86,6.29C1781.09,479.39,1772.12,491.16,1762.09,504.77ZM250.48,501.71l-10.2-5.84A341.67,341.67,0,0,1,269.42,460l9.25,7A330,330,0,0,0,250.48,501.71Zm1197.19-22.08c-5.55-14.58-11-29.17-15.59-41.52l11.48-3.44c4.58,12.34,10,26.9,15.56,41.46Zm-928.37-.76a407.18,407.18,0,0,0-36.14-28.35l7.38-8.6a419.68,419.68,0,0,1,37.2,29.18Zm1634.59-.46a444.3,444.3,0,0,0-27-35.67l9.65-6.55a453.27,453.27,0,0,1,27.69,36.55ZM312.61,437.5l-7.34-8.63A149.33,149.33,0,0,1,350,407.68l3.54,10.38A136.71,136.71,0,0,0,312.61,437.5Zm1506.08-3.32-9.4-6.84a444.36,444.36,0,0,1,32.87-33l8.56,7.67A433.53,433.53,0,0,0,1818.69,434.18Zm-890.86-4.27-12.08-.64c1-15.78,2.08-30.1,3.18-43.8l12.07.78C929.91,399.9,928.87,414.18,927.83,429.91Zm-484.68-2.27A155.87,155.87,0,0,0,399,414.85l1.64-10.75a169,169,0,0,1,47.9,13.82ZM2095.74,410.1A278.65,278.65,0,0,0,2059.89,382l7.12-8.77a290,290,0,0,1,37.39,29.28Zm-679.1-13.52c-6-16.15-11-29.31-15.61-41.43l11.44-3.52c4.65,12.14,9.62,25.33,15.65,41.51Zm470.3-22.3-6.94-8.89a178.77,178.77,0,0,1,44.69-20.56l3.73,10.32A166.32,166.32,0,0,0,1886.94,374.28ZM2019,361a167.36,167.36,0,0,0-45.09-10.43l1.13-10.8A180.24,180.24,0,0,1,2023.69,351ZM934.87,342.68l-12-1c1.5-15.23,3.14-29.94,4.87-43.71l12,1.21C938,312.91,936.37,327.53,934.87,342.68Zm450.06-28.81c-5.85-14.64-11.36-28-16.85-40.9l11.3-3.88c5.52,13,11.06,26.41,16.94,41.12ZM945.88,256l-12-1.55c2.45-15.2,5.14-29.81,8-43.43l11.89,2C951,226.45,948.3,240.91,945.88,256Zm404.22-23.5c-6.5-14-13.06-27.45-19.48-39.89l11-4.56c6.49,12.57,13.11,26.12,19.68,40.28Zm-386-61.94-11.74-2.63c4.22-15.16,8.87-29.43,13.83-42.43L977.61,129C972.76,141.67,968.21,155.65,964.07,170.51Zm345.06-16.9c-8-13.44-16.09-26.06-24.17-37.51l10.23-5.8c8.24,11.68,16.52,24.54,24.63,38.22ZM995.78,89.2l-10.85-4.8a213.84,213.84,0,0,1,26.19-37.95l9.51,6.72A203.37,203.37,0,0,0,995.78,89.2Zm261.44-8.29a278.89,278.89,0,0,0-32.43-31.3l8.11-8a290.56,290.56,0,0,1,33.79,32.58ZM1054.39,25l-6.52-9.14A129.25,129.25,0,0,1,1094.81,0l1.84,10.73A116.46,116.46,0,0,0,1054.39,25Zm132.21,0A157.3,157.3,0,0,0,1143,11.19L1145.08.5a170.64,170.64,0,0,1,47.27,15Z"/><path class="e" d="M2368.51,1160.18C2268.09,1145.29,2277.18,1369,2134,1369c-130.88,0-200.91-499.8-344.53-398.15-577.39,408.67-128.15-286.75-516.39-300.35-175.55-6.14-292.53,181-335.67,512.47-62.53,299.63-207.55-228.52-356.79-179.42-94.85,31.21-84,365.45-214.86,365.45-143.15,0-133.72-188.11-234.14-173.23C23.52,1211.8-1.81,1503.46-1.81,1503.46H2501.63S2476.64,1176.2,2368.51,1160.18Z"/><path class="d" d="M2272.29,1395c-92.39-6.35-77.32,51.07-209,51.07-120.4,0-117.09-128.7-197.67-156-148.38-50.37-270.71,204.56-328.23,76.62-109.26-339.49-427.92-509.74-574.93,0-57.53,127.94-192.06-100.36-328.24-76.62-83.83,14.61-77.27,156-197.67,156-131.69,0-116.62-57.42-209-51.07-99.47,6.85-129.18,108.49-129.18,108.49H2401.47S2371.76,1401.82,2272.29,1395Z"/><path class="f" d="M614.68,854.65C546.75,777.93,493.83,698.92,453,626.1c10.63,6.24,58.95,8.88,59.77-1.49.77-11.64-57.74-16-65-8q-4.1-7.45-8-14.81c10.45,5.58,62,1,61.32-9.93-1-11.62-59.49-6.91-65.45,2.14q-4.89-9.31-9.53-18.44c11,5.08,60.89.38,60.2-10.29-1.15-11.43-57.43-7-64.65,1.43-3-6.11-6-12.17-8.88-18.13,9.51,5.72,64.31-7.7,61.8-18.9-2.81-11.42-61,2.92-64.59,13q-4.11-8.67-8-17.13c10.75,4.39,62.3-8.55,59.92-19.42-3-11.06-57.49,2.2-63.45,11.62q-4.57-10.16-8.8-20c10.95,4.15,61.86-8.72,59.48-19.5-3-11-56.52,2-63,11.22-2.13-5-4.18-10-6.17-14.83,10.93,3.16,60.93-18.62,56.69-29.09-4.71-10.21-54.51,11-59.93,21.13-2.79-6.95-5.38-13.52-7.95-20.23,11.38,2.45,59.85-18.86,55.69-29.15-4.6-10-52.71,10.28-59.1,20.16q-2.88-7.68-5.57-15.14c10.68,2.43,57.46-31.15,50.83-40.65-6.71-8.84-49.87,21.74-53.65,32.77q-3.26-9.21-6.22-18c10.83,2.06,57.08-31.17,50.51-40.65-6.61-8.76-49.1,21.19-53.33,32.21q-3.14-9.47-5.92-18.4c12-1.45,52-31.18,45.94-39.9-5.41-8.06-42.74,16.67-49.81,27.31q-2.65-8.76-5-16.89c11.38-1.55,49-40.19,41.15-48.24-6.81-7.05-39.62,24.06-44.64,35.77-1.36-4.95-2.61-9.68-3.78-14.17,10.85.41,49-43.87,40.26-51.55-7.76-6.69-39.61,28.54-43,40.53-1.7-6.86-3.15-13-4.37-18.48,11.12-1.23,47.43-43.59,38.93-51.21-7.06-6.55-37.3,25.87-41.81,37.88-1-4.92-1.72-8.63-2.16-11,6.09-9.87,1.56-62.92-9.56-62.3-5.17.4-8.18,15.74-6.72,34.24,1.25,21.86,7.81,25.27,10.25,41.42-7.65-10.36-44.78-33.36-49.73-25.28-6.6,9.71,42.79,43.29,52.79,39.34,1.14,5.06,2.48,10.72,4,16.93-9-8.86-52.39-24.81-56-15.47-4.15,10.8,49.13,32.22,59,27.39q2.07,8,4.51,16.82c-9.78-8-54.18-20-56.9-10.43-3.08,11,50.2,27.34,60.28,22.44q2.36,8.15,5,16.92c-10.24-7.25-56.28-15.49-58.23-5.58-2.05,11.18,51.92,22.56,61.75,17q2.55,8.11,5.37,16.68c-10.47-6.39-59.31-9.15-60.17,1.3-.6,11.37,54.61,15.67,63.54,8.81q2.64,7.79,5.48,15.87c-10.34-5.67-62.13-1.09-61.5,9.86,1.15,11.41,57.2,7,64.54-1.35q3,8.42,6.3,17.12c-9.89-6.06-62.89-1.54-62.27,9.57,1.07,11.56,58.79,7,65.18-1.9,2.41,6.31,4.84,12.48,7.44,19-10.44-5.58-61.95-1-61.32,9.93,1.14,11.45,57.63,7,64.73-1.5q2.81,6.87,5.79,13.95c-11.44-3.53-60.74,9.16-58.37,19.71,2.93,10.77,54.89-1.62,62.28-10.52q3.66,8.51,7.57,17.3c-11-4.06-61.7,8.78-59.32,19.53,3,11,56.58-2,63.06-11.25q4,8.91,8.38,18.09c-10.27-4.93-63.16,8.19-60.73,19.21,2.91,11.24,59.07-2.53,64-12.27q4,8.4,8.3,17c-11.15-3.22-61,15.19-57.49,25.74,4.12,10.57,55.85-8,61.41-17.86q4.64,9.19,9.56,18.62c-9.95-4.83-63.31,14.49-59.58,25.39,4.06,11,59.51-9.21,62.62-19.56q5.2,9.86,10.72,19.89c-10.73-3-60.24,23.21-55.1,33.43,5.58,10,55.33-16.23,58.73-26.83,41.36,74.43,95.35,155.48,165,234.14Z"/><path class="g" d="M637.23,798.48a993.74,993.74,0,0,1-194.08-84.81c9.34-.12,41.66-17.31,38.14-24.34-4.06-7.85-43.66,12.22-45.22,20.27q-5.56-3.23-11-6.45c8.95-.47,40.51-23.59,35.83-30.41-5.21-7.12-41.23,18.79-41.55,27q-6.81-4.11-13.39-8.22c9.09-1,39.59-23.56,35-30.2-5.21-7-39.94,17.92-41.31,26.2-4.36-2.76-8.66-5.52-12.85-8.26,8.4,0,38.64-30.14,32.63-36.41-6.27-6.3-38.34,25.74-36.73,33.7-4-2.67-8-5.33-11.88-8,8.68-1.36,37-29.9,31.21-36-6.24-6-36.37,23.9-36.55,32.34q-6.93-4.78-13.49-9.48c8.71-1.6,36.65-29.84,30.89-35.89-6.2-5.94-35.83,23.38-36.43,31.91-3.36-2.42-6.61-4.82-9.8-7.19,8.32-2.22,32.18-35.89,25.34-41-7.05-4.77-31,28.46-30.55,37.12-4.52-3.41-8.78-6.64-13.05-10,8.32-2.87,31.38-35.63,24.66-40.66-6.89-4.67-30.12,27.27-30.39,36.17q-4.87-3.86-9.53-7.63c7.87-2.61,25-42.64,17-46.2-7.8-3.1-23.8,33.57-21.94,42.19q-5.7-4.68-11.06-9.21c7.82-2.91,24.77-42.52,16.81-46.08-7.7-3.09-23.51,32.91-21.94,41.71q-5.73-4.9-11-9.6c32.09-42.54,9.09-68.58-7.43-6.64q-5.13-4.63-9.82-9c6.76-5.45,16-45.18,7.79-47.33-7.16-1.9-16.25,31.06-14.93,40.61q-4.22-4-8-7.69c7.18-4,14.59-47.59,5.91-49.13-7.64-1.3-14.49,34-12,43.08-3.78-3.78-7.14-7.22-10-10.26,6.72-5.15,13.67-46.78,5.18-48.39-7.13-1.48-14,31.34-12.26,40.88-2.59-2.8-4.49-4.92-5.71-6.3.08-8.77-23.6-41.36-30.56-36.62-3.19,2.29.85,13.4,9,24.81,9.36,13.67,14.94,13.31,22.84,22.82-9-3.72-42.05-4.1-42.1,3.07-.48,8.87,44.65,11.31,49.57,4.84q4.09,4.25,9.22,9.4c-9.27-2.23-43.63,4.42-42.3,11.87,1.54,8.62,44.43,1.65,48.92-5.34q4.44,4.35,9.49,9.14c-9.46-1.35-42.91,8.23-40.93,15.49,2.3,8.33,43.22-1.92,47.83-9q4.69,4.36,9.86,9c-9.47-.7-42.52,12-39.91,19.16,3,8,42.45-5.7,46.65-13.15q4.82,4.26,10,8.7c-9.27,0-42,17.27-38.46,24.38,4.06,7.59,41.5-11.21,44.6-19.15q4.75,4,9.77,8.14c-8.91.36-40.68,23.59-36,30.43,5.21,6.94,39.8-17.82,41.27-26.11,3.51,2.84,7.09,5.71,10.78,8.62-8.78-.06-41.34,23.6-36.59,30.56,5.21,7.07,40.8-18.5,41.47-26.73,4,3.15,8,6.19,12.25,9.39-9,.47-40.52,23.59-35.84,30.4,5.22,7,40.06-18,41.34-26.28q4.5,3.34,9.2,6.77c-8.78,2.19-35.76,29.69-30.09,35.59,6.11,5.84,34.92-22.51,36.22-31.17q5.7,4.1,11.67,8.25c-8.73,1.69-36.53,29.82-30.78,35.85,6.2,5.94,35.87-23.42,36.44-32q6.11,4.2,12.5,8.44c-8.58.82-37.7,30-31.82,36.2,6.28,6.13,37.27-24.75,36.66-33q5.89,3.87,12,7.78c-8.48,2.28-33.59,33.71-27.17,39.16,6.8,5.23,33-27,32.78-35.59,4.4,2.77,8.91,5.55,13.48,8.33-8.33.76-35.33,34.14-28.66,39.74,6.92,5.52,34.94-29.24,32.91-37.16q7.23,4.35,14.72,8.69c-8.14,2.23-29.94,38.59-22.61,43.21,7.53,4.31,29.49-32.15,27.55-40.35a1000.46,1000.46,0,0,0,198.42,87.12Z"/><path class="g" d="M2111.42,437.4c9.87,23.2,16.74,44.15,18.71,56q8.45-20.27,16.37-37.47c-10.74-7.51-43.76-124.59-32.38-128.35,11-1.63,38.11,97.82,37.61,117.16,6.08-12.81,11.89-24.31,17.38-34.59-10.21-3.82-19.68-134.25-7.6-134.25,5.1-.34,11.27,29.58,13.76,66.84,1.6,23.73,1.31,44.7-.42,56.9,7.44-13.37,14.21-24.41,20.16-33.43-9.48-5.25,6.25-135.78,18.08-133.33,10.63,2.5-1.88,102.47-9.51,120.92,17.92-23.38,21.48-32.65,54.72-63.11,64.53-59.46,77.35-45.53,12.53,13.66-31.36,30.88-44.18,27.58-63.81,57.79,15.07-9.72,120.08-33.53,123.91-22.74,2.35,11.8-119.48,38-129.57,31.09-6.22,9.44-13.37,21.12-21.28,35.44,13.78-8.53,125.84-21.54,128.44-10.09,1,12-122.52,24.59-132.08,16.77-5.69,10.6-11.75,22.5-18.1,35.85,15.58-8.12,123.67-20.49,126.32-9.27.24,11.93-117.42,23.91-130.14,17.39-5.59,12-11.39,25.16-17.37,39.47,15.62-8.1,123.6-20.45,126.25-9.24.13,11.91-116.37,23.78-129.67,17.51q-7.33,17.93-15,38.23c14.48-8.38,125.05-21.15,127.68-9.78.35,11.94-118.24,24-130.48,17.29-4.65,12.87-9.83,25.74-15.47,37.7,14.59-6.47,128-2.34,128.83,9.4-1.36,11.89-121.51,5.79-132-2.85a352.26,352.26,0,0,1-21,37.1c11-7.06,131.88,7.21,131,19.17s-130-5-133.52-15.35a290.43,290.43,0,0,1-32.67,40.45c15.46-2.69,124.7,30.86,122.39,42.43-4.11,11.28-120.91-26.44-127.35-37.46A250.72,250.72,0,0,1,1995,713.29c16.16.54,116.61,52.11,112.39,63.08-6,10.37-114.33-47.17-118.8-59.16-39.08,23-69.69,25.83-71,25.94l-.64-7.45c.31,0,29.75-2.81,66.8-24.32-12.06-9.78-57.74-115-47.42-120.77,11.29-3.21,54.58,100.33,54.06,116.76a242.1,242.1,0,0,0,39.87-31.55c-11.81-3.73-69.63-113.41-59.1-119.21,11-4.55,64.71,101.06,63.14,115.19a286.85,286.85,0,0,0,32.39-39.6c-12.05-2.72-78.53-107.49-68.5-114.11,10.67-5.22,71.55,93.91,72,108.88a341.74,341.74,0,0,0,20.11-35.25c-11,.95-80.45-108.92-69.88-114.73,10.63-5.46,72.82,95.85,72.21,109.91,5.38-11.22,10.57-23.57,15.25-36.45-13.09-6.48-76-105.51-66.47-112.69,10.27-4.71,65.68,84.61,70.14,102.83q7.64-20.39,15-38.36c-11.45-4.33-61-118.47-50.06-123.4C2081.11,376.82,2096.79,403.05,2111.42,437.4Z"/><path class="h" d="M858.07,458.57c-1-8.92-87.16-8.9-98.43-3.64a191.29,191.29,0,0,0,16.51-36.62c8,5.31,101-9.89,99.73-19-2.54-8.67-88.58,6.68-98.13,13.94a225.42,225.42,0,0,0,8.12-39c5.81,6,100-27.73,96.21-36.17s-90.92,24.12-95.83,32.79a265.4,265.4,0,0,0,1.42-32.65c10.07,2.26,94-35.61,90.73-44.15-4.72-7.67-83.14,29.08-90.88,38.6-.32-9.78-1.29-20.57-2.63-31,10.59.35,87.14-49.35,82.67-57.32-5.83-6.76-76.39,40.44-83.39,51.24q-1.9-16.48-3.16-31.23c11.16-.33,86.36-49.17,82-57.18-5.78-6.65-74.73,39.35-82.6,50.37q-1.4-17.73-2-32.9c10.85,0,86.8-49.28,82.4-57.27-5.79-6.66-74.81,39.4-82.64,50.41-.35-11.3-.39-21.5-.21-30.69,9.17,2,88.83-49.75,83.94-57.53-5.83-6.83-77.33,41.05-83.8,51.71.37-12.49,1.15-22.93,2.09-31.52,9.22,1.18,83-59.22,77.24-66.38-6.44-5.95-69.38,46.8-76.31,58.72,2.79-27.34,12.69-29.66,23.21-61.57,23.4-62.85,9.83-67.89-13.29-4.91-12,32.36-11.13,39.8-15.17,62C774.72,122.5,748.25,50,740.19,52.1c-8.89,2.48,26,96.69,34.26,97-.9,8.22-1.65,18.08-2,29.77-3.13-13.92-44.41-83-52.28-79.47-8.19,4.23,43.76,89.58,52,88.62q-.21,13.36.26,29.59C766.09,204.31,712.82,146,706,151c-6.38,6.58,56.86,74.55,66.84,76q.63,14.49,1.94,31.19c-6.58-11.78-70.1-65.12-76.51-59.1-5.68,7.22,67.78,67.43,77.13,66.42q1.29,14.79,3.2,31.32c-9.31-10.8-78.33-52.26-83.59-45.42-3.88,8.23,73.3,53.52,84.54,53.4,1.31,10.4,2.1,20.6,2.36,30.11-4.43-9.73-82.22-57-87.47-49.52-5.14,7.66,80.42,58.07,87.57,53.61a260.9,260.9,0,0,1-1.37,31c-5.45-10-81.59-56.2-87-48.88-4.46,8,77.22,56,86.41,53.66A219.22,219.22,0,0,1,771.86,413c-3.8-10.11-77.3-63.26-83.16-56.27-5.08,7.65,72.44,62,81.81,60.41a183.85,183.85,0,0,1-16.09,35.37c-5.3-11.29-71-66.69-77.52-60.5-4.95,7.56,62.73,63.05,74.41,65.54-17.66,27.54-36.69,39.72-36.92,39.87l3,4.84c.86-.54,20.68-13.15,39.22-42.43C763.8,466.43,857.66,467.74,858.07,458.57Z"/><rect class="i" x="648.51" y="166.32" width="1137.32" height="1576.66" rx="90.96" transform="translate(2171.83 -262.52) rotate(90)"/><rect class="a" x="511.12" y="463.91" width="1412.12" height="981.49"/><rect class="j" x="567.77" y="520.56" width="1298.81" height="868.18"/><polygon class="a" points="1905.91 975.05 1905.91 952.39 1574.98 952.39 1333.22 1126.63 738.5 1126.63 736.25 752.5 929.96 946.21 962.01 914.16 779.44 731.59 1879.53 731.59 1879.53 708.93 758.72 708.93 758.72 502.27 713.4 502.27 713.4 708.93 713.33 708.93 713.4 720.24 713.4 729.65 713.45 729.71 714.52 907.52 537.23 907.52 537.23 952.85 714.79 952.85 715.84 1126.63 537.23 1126.63 537.23 1171.96 716.11 1171.96 717.56 1414.27 740.22 1414.13 738.77 1171.96 1315.68 1171.96 1315.68 1414.2 1338.34 1414.2 1338.34 1171.96 1562.08 1171.96 1684.36 1228.76 1506.13 1406.98 1538.18 1439.03 1728.13 1249.09 1869.98 1314.98 1889.08 1273.87 1572.09 1126.63 1371.98 1126.63 1582.3 975.05 1905.91 975.05"/><polygon class="i" points="985.64 1388.74 906.32 1388.74 906.32 890.52 1502.25 890.52 1502.25 720.26 1581.56 720.26 1581.56 969.84 985.64 969.84 985.64 1388.74"/><path class="k" d="M1592.1,723.58c-.31,68.47-104.42,68.46-104.72,0C1487.69,655.11,1591.8,655.11,1592.1,723.58Z"/><path class="a" d="M1568.13,723.58c.54,36.84-57.33,36.84-56.79,0C1510.81,686.74,1568.67,686.74,1568.13,723.58Z"/><path class="k" d="M1656.28,432.25c8.21,98.08-116.54,225-116.54,225C1237.89,336.83,1636.31,193.87,1656.28,432.25Z"/><path class="a" d="M1604.21,430.77c-1.45,84.74-127.51,84.73-128.94,0C1476.71,346,1602.78,346,1604.21,430.77Z"/><polygon class="k" points="945.99 1006.86 945.99 1245 788.87 1278.99 945.99 1006.86"/><polygon class="l" points="1103.1 1278.99 945.99 1245 945.99 1006.86 1103.1 1278.99"/><path class="k" d="M1222.53,1225.91l-37.61,110.67h691L1791,1192.81c-27.82-47.15-74.78-75.49-125.09-75.49H1223.5a10.59,10.59,0,0,0-7.92,17.62c7.63,8.52,24.63,21,47.07,25.43A170.6,170.6,0,0,0,1222.53,1225.91Z"/><rect class="m" x="1106.34" y="1480.39" width="50.81" height="20.63"/><path class="n" d="M2077.59,1427.87a31.37,31.37,0,0,1-19,25l-1.51.62h0l-24.8-57.71,2.11-.81a31.38,31.38,0,0,1,43.23,32.9Z"/><path class="o" d="M2077.59,1427.87a31.37,31.37,0,0,1-19,25l-1.51.62c.3-.35,13.81-16.16,7.42-35.14-6.47-19.2-32.23-22.56-32.23-22.56l2.11-.81a31.38,31.38,0,0,1,43.23,32.9Z"/><path class="n" d="M1109.82,1433.89a31.38,31.38,0,0,0,24.79,19.28l1.63.22h0l9.19-62.14-2.25-.24a31.39,31.39,0,0,0-33.36,42.88Z"/><path class="o" d="M1109.82,1433.89a31.38,31.38,0,0,0,24.79,19.28l1.63.22c-.39-.27-17.5-12.09-16.19-32.07,1.34-20.22,25.38-30.07,25.38-30.07l-2.25-.24a31.39,31.39,0,0,0-33.36,42.88Z"/><circle class="p" cx="1262.18" cy="1534.81" r="79.13"/><circle class="q" cx="1262.18" cy="1534.81" r="38.98"/><circle class="p" cx="1899.73" cy="1534.81" r="79.13"/><circle class="q" cx="1899.73" cy="1534.81" r="38.98"/><path class="k" d="M2074,1519.72a22.43,22.43,0,0,1-21.2,15.09h-64.4a88.63,88.63,0,0,0-176-15.09h0a89.33,89.33,0,0,0-1.28,15.09H1350.8a89.33,89.33,0,0,0-1.28-15.09h0a88.63,88.63,0,0,0-176,15.09,43.19,43.19,0,0,1-43.21-43.22v-50.33a130.55,130.55,0,0,1,130.55-130.55h620c155.53,0,187.53,140.84,194.1,199.22A22.21,22.21,0,0,1,2074,1519.72Z"/><path class="m" d="M1256,1326.07,1289.22,1226l.08-.2a141,141,0,0,1,34.25-52.47,135.7,135.7,0,0,1,50.17-30.55,132.15,132.15,0,0,1,42.14-6.93h250.19c45,.48,86.66,23.85,111.52,62.55l.15.24,73.83,127.47Z"/><path class="r" d="M1826,1310.71H1277.23l27.29-80.67a123,123,0,0,1,30.73-46.2,121.14,121.14,0,0,1,45-26.86,115.48,115.48,0,0,1,13.43-3.6,119.2,119.2,0,0,1,24.28-2.49h246.24a121,121,0,0,1,100,55Z"/><path class="s" d="M1442.35,1310.71h-55.8l-51.3-126.87a121.14,121.14,0,0,1,45-26.86Z"/><path class="s" d="M1484.88,1310.71h-27.63l-63.62-157.33a119.2,119.2,0,0,1,24.28-2.49h2.34Z"/><polygon class="s" points="1686.25 1310.71 1630.44 1310.71 1565.82 1150.89 1621.63 1150.89 1686.25 1310.71"/><path class="s" d="M1728.77,1310.71h-27.63l-64.62-159.82h27.63Z"/><rect class="m" x="1539.91" y="1354.5" width="36.95" height="18.36"/><rect class="m" x="1412.42" y="1354.5" width="36.95" height="18.36"/><path class="m" d="M2005.45,1519.72c-15.49-120.1-196-120-211.45,0H1485.5v-76a190.89,190.89,0,0,1,45.39-123.49l2.18-2.57V1137.49h-18.35V1311a209.21,209.21,0,0,0-47.58,132.76v76h-99.23c-10.46-77.92-87.46-104.18-145.79-82.76.8-36.63,9.59-67.09,25.55-88.33,12.48-16.63,25.15-22,25.27-22l-.06,0-6.69-17.09c-.68.26-16.71,6.7-32.25,26.8-13.8,17.85-30.24,53.67-30.24,109.08l.69-.11c-27.5,16.17-47.68,44.85-48.93,85.52a43,43,0,0,0,18.09,4c3.15-117.34,174.56-116.37,177.25,0h460.3c1.81-116.42,175.47-116.38,177.26,0h64.4a22.43,22.43,0,0,0,21.2-15.09Z"/><path class="m" d="M1968.57,1368.91h-99.16a5,5,0,0,1,0-10h99.16a5,5,0,0,1,0,10Z"/><path class="m" d="M1968.57,1387h-99.16a5,5,0,1,1,0-10h99.16a5,5,0,0,1,0,10Z"/><path class="m" d="M1968.57,1405.1h-99.16a5,5,0,0,1,0-10h99.16a5,5,0,0,1,0,10Z"/><path class="t" d="M230,1609.74l-1-.52c0,.69-.86,3.09-1.55,3.09l-29.17.6c-.69,0-1.11-1.3-1.11-2l-2.49-.71c0-4.37.36-6,2.29-9.33,7.09-9.43-1.37-51.58-1.13-62.59-1.75-3,30.72-.65,31.17-1.36a1.26,1.26,0,0,1,1.25,1.35l-3.83,48.16C222.77,1595.59,229.79,1601.12,230,1609.74Z"/><path class="t" d="M374.3,1613.93H316.2c-5.07-.2-5-5.37-4.1-9.38,3.2-14.46-2.45-47.66-3.5-62.53a4.62,4.62,0,0,1,4.59-5.09c42.87-.43,28.89-3.87,25.56,42.38-2.53,16.15,16.74,19.23,27.72,21C373.71,1600.85,385.8,1610.72,374.3,1613.93Z"/><path class="u" d="M309.89,1607.91c.16,2.85,1.57,6.1,4.87,6H375c14.22-5.28-7.08-24.13-34.91-24C320.33,1595.35,309.22,1579.92,309.89,1607.91Z"/><path class="u" d="M199.35,1613.94h25.76c12.55-1.72,3.51-25.8-12.88-24.06C195.81,1587.8,186.81,1612.24,199.35,1613.94Z"/><path class="v" d="M360.66,1605.78a1.27,1.27,0,0,0,1.18-.8c2.32-5.72,6.5-7.46,6.67-7.54,3.26-5.14-6.21-1.47-9,6.58A1.29,1.29,0,0,0,360.66,1605.78Z"/><path class="v" d="M350.71,1604.58a1.28,1.28,0,0,0,1.22-.9,17.73,17.73,0,0,1,7.87-9.71c2.95-6-8.05.42-10.32,9A1.29,1.29,0,0,0,350.71,1604.58Z"/><path class="v" d="M339.38,1603.19a1.28,1.28,0,0,0,1.21-.86,23.07,23.07,0,0,1,8-10.66C351.83,1582.85,333.79,1600.83,339.38,1603.19Z"/><path class="v" d="M203,1597.54c7.15-4.34,18.13-.43,18.17-.12,7.47-1.61-10.2-7.91-18.82-2.27A1.29,1.29,0,0,0,203,1597.54Z"/><path class="w" d="M379.24,1607.91H309.89a15.88,15.88,0,0,0,1.9,6H375A4.48,4.48,0,0,0,379.24,1607.91Z"/><path class="w" d="M199.35,1613.94h25.76a5.71,5.71,0,0,0,5.71-6H193.64A5.72,5.72,0,0,0,199.35,1613.94Z"/><path class="x" d="M343.28,1024.57s6.31-17.71-8.71-26.31l-11.39,5.9Z"/><path class="f" d="M332.83,1167.41c56.72,43.29,127.72,33.61,168,3.5l2.1-20.58c-92.8,7.19-115.35-37.31-175.08-64.32C327.8,1086,332.2,1166,332.83,1167.41Z"/><path class="y" d="M190.28,1557q.15,6.06.34,12.25s21.85,14.42,43.4,4.35c8.43-45.9,26.4-144.21,44.54-262.76.24-3.49,32.89,159,21.62,266.52,0,0,24.23,6.25,46.09-1.95,15.36-54.88,15.89-154.47,4.92-362.83,0,0-65.63-3.7-113.37-27.37C196.68,1232.9,185.31,1477.32,190.28,1557Z"/><path class="t" d="M322.13,1083.88c2.72-14.39,9.33-40.27-1.49-46.65-7.62-4.17-18.37,1.1-17.41,10.64.81-.33-1.23,26.07-4.06,33C276.73,1083.69,337.41,1115.59,322.13,1083.88Z"/><path class="z" d="M303.21,1046.65c0,.41,0,.82,0,1.22.59-.26-.35,14.34-2.09,24.76,9,6.1,20.27,6,22.34,5.91,1.64-15.33,7.51-34.28-2.85-41.31C313.55,1032.67,303.27,1038.1,303.21,1046.65Z"/><path class="t" d="M289.45,1034.47c-.07,10.48,1.43,22.55,8.35,30.65h0c.28.33.56.64.87.94v0c10.46,9.93,27.05,11.68,40.3,4.07h0c10.67-7.06,15.54-18.16,12.19-27.9-2.29-5.81-7.35-11.42-7.91-17.69C339.87,986.53,289.68,994,289.45,1034.47Z"/><path class="aa" d="M329.42,1034.74a1.57,1.57,0,0,0-2.52-1.86A1.57,1.57,0,0,0,329.42,1034.74Z"/><path class="aa" d="M342.76,1034.75a1.56,1.56,0,0,0-2.51-1.86A1.56,1.56,0,0,0,342.76,1034.75Z"/><path class="z" d="M289.45,1034.47c-.07,10.48,1.43,22.55,8.35,30.65h0c.28.33.56.64.87.94-8.21-16.43-6-19.82-2.3-31.25,12.09-8.6,11.66-20.34,23-20.29a138.19,138.19,0,0,0,20.56-1.5C327.23,986,289.28,1001.63,289.45,1034.47Z"/><path class="aa" d="M336.89,1047.45c2.58-.07,5.89-1.25,3.1-3.94-2.65-2.07-3.78-8.48-3.79-8.54-2.64-2.46.05,7.16,3.06,9.47,2.05,1.79-2.95,2.34-4.8,1.32C331.79,1046.18,335.74,1047.79,336.89,1047.45Z"/><path class="ab" d="M214.25,1256.11c31.77,24.05,107.15,30.3,138.87,18.82,10.7-4.53,12.19-40.55,10.95-75.93-1.9-47.16-13.39-81.25-35.15-112.76a39.61,39.61,0,0,0-6.78-2.35c.11,4.31-.88,16.76-23-3-.1.08-6.59-.79-8.62.08-2.12,1.61-26,17.17-26.64,19.7-1.81,7.56-9.88,26.29-18.71,48.11-10.21,25.52-20.68,51.67-25.17,75.57C218.27,1234.29,208,1246.75,214.25,1256.11Z"/><path class="x" d="M287.64,1020.34c3.56-30,22.09-29.06,22.09-29.06h0c15.95-21.24,51.51-10.59,36.7,13.28-8.4,14.71-29.88-1.69-42.56,17.15-5.1,7.58-8.25,12.25-17.09,16.13C286.78,1037.84,285.62,1028.45,287.64,1020.34Z"/><path class="t" d="M282.1,1038.53c.36,11.92,15.4,11.3,14.77-.61C296.51,1026,281.48,1026.62,282.1,1038.53Z"/><path class="aa" d="M336.51,1056c2.13.2,4.05-.89,2.11-1.41-.25.07-6,1.55-12.1-4.08a.59.59,0,0,0-.84,0C327.47,1055,334.77,1055.93,336.51,1056Z"/><path class="f" d="M290.87,1081.12c7.27,12.4,39.38,31.72,38.05,5.13a37.91,37.91,0,0,0-6.78-2.36c.05.7,1.32,19-23-3C299.2,1081.07,292.69,1079.89,290.87,1081.12Z"/><path class="ac" d="M332.58,1566.92c25.46-125.31-1.41-286.82-5.49-288-2.09,1,21.33,163.3,5.16,288-9.41,1.16-21,1-30.8-4.08q-.57,7.27-1.27,14.45s24.23,6.25,46.09-1.95c0,0,1.44-4.19,3.7-12.5A87,87,0,0,1,332.58,1566.92Z"/><path class="ac" d="M214.47,1564.47c21.46-136.2,44.78-290.36,41.79-292.7-3.1.44-26.92,157.38-42.17,292.66a59.68,59.68,0,0,1-23.81-7.46q.15,6.06.34,12.25s21.85,14.42,43.4,4.35c0,0,.7-3.78,2-10.69A62.59,62.59,0,0,1,214.47,1564.47Z"/><path class="f" d="M249.21,1093.37s-32.24,25.49-39.56,67.36c-11.39,65.16,19.59,100.74,85.92,118.77a16.33,16.33,0,0,1,11-10.82s-31.76-24.51-39.75-53.84-4.13-71.63,11.13-88.26C278,1126.58,266,1099.16,249.21,1093.37Z"/><path class="ad" d="M271.44,1084.28c7.16-7.73,20-8.28,22.25-1a334.48,334.48,0,0,0,20.83,50.84,7.5,7.5,0,0,1,3.68-1.05c16.51-23.59,12.81-45.53,12.81-45.53,10.25-.71,17,3.26,20.62,9.5,17.82,6.54,15.67,20.61-.63,31.18-3.8,8.39-10.24,15.88-18.82,19.91,6.22,14.28,13.76,36.84,5.19,41.17-3.86,3.65-13.4,5.3-13.64-5.35-.2-8.81-.68-22.22-1.75-30.53a7.47,7.47,0,0,1-3-.23s-1.26,29.46,3.6,47.88-18,14.92-25.44,8.89c-5.87-4.74-.73-42.19,7.83-62.44a70.4,70.4,0,0,1-15.37-11.92h0C280.33,1126.24,216.11,1090.06,271.44,1084.28Z"/><rect class="k" x="198.95" y="1229.31" width="384.65" height="23.49" transform="translate(-656.85 469.86) rotate(-36.16)"/><rect class="m" x="216.6" y="1283.38" width="201.33" height="23.49" transform="translate(-703 436.61) rotate(-36.16)"/><circle class="ae" cx="661.25" cy="1045.24" r="141.19" transform="translate(-545.42 773.72) rotate(-45)"/><path class="ae" d="M805.26,1096.57a152.39,152.39,0,0,1-21,39.49l-8.39-8.39-8.44-8.44L587.27,939l-16.83-16.83c.53-.4,1.08-.79,1.62-1.18a152.49,152.49,0,0,1,37.81-19.83l9.26,9.26,9.52,9.52h0l157.83,157.83,9.55,9.55Z"/><path class="ae" d="M770.23,1152.56a153.56,153.56,0,0,1-58.79,37.17l-9.31-9.31-9.58-9.58L535.64,1013.92l-9.54-9.53L516.75,995a151.32,151.32,0,0,1,37.17-58.79l16.62,16.61L753.61,1136l8.32,8.31Z"/><path class="m" d="M785.48,956.05c-78-110.67-255.43-67.45-275.14,64.42-22,110.74,97.57,209.38,201.1,169.25C805.42,1159,845.91,1037.29,785.48,956.05Zm1,121.74c-10.89,44.79-49.22,82.61-93.93,93-125.88,31.81-215.77-126.15-122-218C663.13,861.58,819.66,952.26,786.48,1077.79Z"/><path class="t" d="M514.1,1169.42c6,4.82,11.25-3.5,2.91-4.43l.1.08C513.84,1162.52,511,1167.1,514.1,1169.42Z"/><path class="t" d="M518.3,1166.39c7.74,4.17,10-6.3,2.46-4.9.17,0-.71-.18-.56-.16C516.45,1159.46,515,1164.83,518.3,1166.39Z"/><path class="t" d="M522.79,1163.36l2.88.55c4,.63,3.5-5.27.12-5.69l-2.88-.55C518.87,1157,519.41,1162.94,522.79,1163.36Z"/><path class="t" d="M526.28,1160.12l2.88.55c4,.63,3.5-5.27.12-5.69l-2.88-.56C522.36,1153.8,522.9,1159.69,526.28,1160.12Z"/><path class="t" d="M330,1272.56l-5.65,4.07.08.12a28.42,28.42,0,0,0,9.57,9,92.13,92.13,0,0,0,11.48,6c5.38,8.06-16.64-1.69-19.38-2.25l-.05.09a133.54,133.54,0,0,0,16,12.18c3.63,9.63-17.63-6.58-20.16-8l0,0a78.28,78.28,0,0,0,13.74,13.42c2.8,10.09-17.43-8.13-19.39-10.35l-.08,0a81.92,81.92,0,0,0,9,12.45c1.33,9.91-13.88-8.61-15.39-10.84-1.6-.89-9.47-8.31-14.17-19-1.54-3.5,7.87-12.77,11-10.82,2.35,1.47,9.95,1.47,11.6,2C322,1271.17,326,1271.06,330,1272.56Z"/><path class="aa" d="M322.49,1030.69a.55.55,0,0,1-.4-.16.58.58,0,0,1,0-.82,11.8,11.8,0,0,1,8.77-3.59.59.59,0,0,1,.55.62.6.6,0,0,1-.62.55,10.77,10.77,0,0,0-7.83,3.21A.57.57,0,0,1,322.49,1030.69Z"/><path class="aa" d="M343.09,1029a.58.58,0,0,1-.37-.13,8.54,8.54,0,0,0-6-1.58.59.59,0,0,1-.2-1.16,9.59,9.59,0,0,1,7,1.82.58.58,0,0,1,.1.82A.59.59,0,0,1,343.09,1029Z"/><path class="aa" d="M292.74,1034.43c.42-1.22-3.35-2.74-6.06-1.36-1.39.62-3.25,5.66-1.2,8.49a.59.59,0,0,0,.58-.67,11.44,11.44,0,0,1,.31-5.58.51.51,0,0,0,.15.07c.16,0,3.92.93,4.88,6.29a.65.65,0,0,0,.64.54h.12a.66.66,0,0,0,.53-.76c-.95-5.32-4.4-6.86-5.53-7.23a1.14,1.14,0,0,1,.16-.15C289.9,1032.6,291.81,1035.47,292.74,1034.43Z"/><path class="x" d="M1160.87,101.61s8.69-16.79,35.19-11.83,32.75,38.58,41.74,53.88c19,32.42,24.76,66.87,14.86,83.42-11,18.38-35.26,11.19-70.71,7.89-37.82-3.51-53.67-36.34-30.14-81.48Z"/><path class="f" d="M1171.87,179.67c-10.37,15.19-17,89.27-17.2,95l-54-4c-3.53-27.12,32.43-82.73,65.22-89.32h0A55.68,55.68,0,0,1,1171.87,179.67Z"/><path class="t" d="M1018.21,588.06l52.68-.57c-.13-8.43-2.37-25.43-.7-35l-22.75,2.94c.63,4.61,2,14.62-5.63,17-9.92,3.1-20.73,2.15-26.92,9.79A3.84,3.84,0,0,0,1018.21,588.06Z"/><path class="ad" d="M1072.44,582.4a13.39,13.39,0,0,1-1.55,5.09l-53.19.58a3.78,3.78,0,0,1-3.66-5c2-5.72,8.88-14.08,33.39-15.63,0,0,8.37,2.39,22-.24C1069.48,567.25,1073.24,575.16,1072.44,582.4Z"/><path class="v" d="M1029.68,581.07a1.07,1.07,0,0,1-1-.66,11.44,11.44,0,0,0-5.69-6.28c-2.82-4.29,5.23-1.3,7.67,5.45A1.08,1.08,0,0,1,1029.68,581.07Z"/><path class="v" d="M1038,580a1.07,1.07,0,0,1-1-.75,14.89,14.89,0,0,0-6.72-8.09c-2.57-5,6.8.27,8.77,7.43A1.09,1.09,0,0,1,1038,580Z"/><path class="v" d="M1047.56,578.69a1.07,1.07,0,0,1-1-.71,19.44,19.44,0,0,0-6.81-8.89c-2-5.25,6.53,1,8.83,8.16A1.07,1.07,0,0,1,1047.56,578.69Z"/><path class="af" d="M1014.07,583l58.37-.64a13.39,13.39,0,0,1-1.55,5.09l-53.19.58A3.78,3.78,0,0,1,1014.07,583Z"/><path class="f" d="M1185.12,386.92c-25.93-1.09-71.11-15.37-90.59,17.62-21.34,36-16.11,112.46-14,149.4-28.46,9.17-43.77,0-43.77,0-12.13-75.61-52.07-247.85,81.49-224h89.57C1222.84,360.52,1209.45,386.41,1185.12,386.92Z"/><path class="t" d="M1081.39,588.06l52.68-.58c-.13-8.42-2.38-25.42-.7-35l-22.75,2.94c.63,4.61,2.21,14.62-5.63,17-9.94,3-20.73,2.15-26.92,9.78A3.85,3.85,0,0,0,1081.39,588.06Z"/><path class="ad" d="M1135.62,582.39a13.34,13.34,0,0,1-1.55,5.09l-53.2.59a3.78,3.78,0,0,1-3.65-5c2-5.72,8.88-14.08,33.39-15.63,0,0,8.36,2.39,22.05-.24C1132.66,567.25,1136.42,575.16,1135.62,582.39Z"/><path class="v" d="M1092.86,581.07a1.1,1.1,0,0,1-1-.66,11.4,11.4,0,0,0-5.68-6.28c-2.82-4.29,5.23-1.31,7.67,5.45A1.08,1.08,0,0,1,1092.86,581.07Z"/><path class="v" d="M1101.22,580a1.07,1.07,0,0,1-1-.75,15,15,0,0,0-6.72-8.1c-2.57-5,6.8.28,8.77,7.44A1.09,1.09,0,0,1,1101.22,580Z"/><path class="v" d="M1110.74,578.69a1.06,1.06,0,0,1-1-.71,19.44,19.44,0,0,0-6.81-8.89c-2-5.25,6.53,1,8.83,8.16A1.08,1.08,0,0,1,1110.74,578.69Z"/><path class="af" d="M1077.25,583l58.37-.64a13.34,13.34,0,0,1-1.55,5.09l-53.2.59A3.78,3.78,0,0,1,1077.25,583Z"/><path class="ab" d="M1125.58,330l-7.66,55.84c-33.49,13.2-35.74,49.37-38.8,89C1063.61,413.57,1064.8,350.68,1125.58,330Z"/><path class="f" d="M1218.87,389.51c-27.14,16.7-54.24-1.53-73.33,37-15.4,33.74-6.77,98.21-2.54,127.43-28.46,9.17-43.77,0-43.77,0-16.88-65.23-55.48-216.81,53.61-224,29.87-1,69.12-.69,95.52-2.28C1248.36,327.71,1255.69,366.84,1218.87,389.51Z"/><path class="f" d="M1248.89,312.28c2.31,16.52-1,35.72-1,35.72-35.27-11.21-67.33-12.24-120.9-19.72,33.84-101.34-44.52-30.44,44.92-148.61l22.14,2C1219.15,200.58,1235.35,225.65,1248.89,312.28Z"/><path class="ab" d="M1126.17,252a.89.89,0,0,1-.9-1c1.79-14.8,17.47-34,19.53-33,1.4,1.81-16.68,17.7-17.74,33.11A.89.89,0,0,1,1126.17,252Z"/><polygon class="ag" points="1032.42 335.78 1150.96 335.78 1127.36 248.88 1009.53 248.88 1032.42 335.78"/><rect class="ah" x="1032.42" y="335.35" width="118.55" height="5.9"/><polygon class="ai" points="1125.58 248.88 1129.82 248.88 1152.94 335.35 1209.2 335.35 1209.2 341.25 1148.99 341.25 1148.99 335.97 1125.58 248.88"/><path class="t" d="M1233,198.5c27.32,20.48,41.92,57.34,34.7,90.86-2.76,18.82-14.64,36.73-33.23,42.06-9.17,3.67-52,9.57-50-5.62.68-3.65,3.91-5,7-6,5.16-1.82,10.48-3.83,15.4-6.07,8.81-4.57,20.14-8.86,22.06-18.75,4.08-23.1-5.38-45.68-22.64-60.76,0,0-.08-.07.17.12C1183.12,217,1209.46,181.29,1233,198.5Z"/><path class="f" d="M1249.37,327.29a100,100,0,0,1-37.23,8.49s2.34-15.12-8.58-21.34c61.53-46.77-26.35-66.45-9.47-135.17C1260.07,180.45,1328.19,280.46,1249.37,327.29Z"/><path class="t" d="M1158.37,335.35s5.28-18.46,36.8-16.34l6.6,16.34Z"/><path class="ab" d="M1219.46,335.27c-4.51.5-7.32.51-7.32.51s2.34-15.12-8.58-21.34a59.41,59.41,0,0,0,6.2-4.85A27.92,27.92,0,0,1,1219.46,335.27Z"/><path class="ab" d="M1209.2,312.17a.9.9,0,0,1-.59-1.57c27.33-24.35,13.94-50.13-2.31-66.82-.8-.82.53-2.1,1.31-1.22C1224.9,259.84,1238,288.39,1209.2,312.17Z"/><path class="ab" d="M1218.87,335.36c-5.11-3,14.35-1.49,29.15-8.48a.89.89,0,1,1,.68,1.65A96.39,96.39,0,0,1,1218.87,335.36Z"/><path class="aj" d="M1200.18,206.92c-.63,4.73-5.14,6.2-6.27,6-15.87-6.78-4.59,14.64-11.11,16.82-5.49,1.83-6.15-5.33-10.93-5.72-6.95-.57-8.37,3.21-10.81.91-3.4-3.2,4.83-8.79,3.78-14.53-.74-4-8.75,0-8.64-8.26.13-8.13,9.44-20.32,9.73-20.7h0c5.86-3.27,18.62-1.78,24.42-1.71.09-.58,3.74-.4,3.74-.4a9.86,9.86,0,0,1,5,.37C1200.31,186.25,1201.44,199.83,1200.18,206.92Z"/><path class="t" d="M1172.4,171.8l-.54,7.87s-.73,7.57-.73,21.65c0,19.79,4.89,17.48,11.67,3.66,3.72-7.6,11.29-25.09,11.29-25.09a79.56,79.56,0,0,1,.37-8.35Z"/><path class="z" d="M1198.77,149.26a11,11,0,0,1-.32,1.12c-.47-.39-3.17,12.71-4.15,22.7-9.47,5.54-20.43,4.81-22.31,4.23.51-14.78,1.75-36.89,13.13-41C1192.75,133.88,1200.83,141.4,1198.77,149.26Z"/><path class="x" d="M1170.08,100.59c-28.59-3.43-33.12,41.7-13.69,58.3Z"/><path class="t" d="M1203.79,132.39c1.38,9.85,1.47,21.41-4,29.91h0c-15,24.6-64.81,8.74-51.18-20.43a29,29,0,0,0,3.29-12.09C1152.3,89.49,1199.81,98,1203.79,132.39Z"/><path class="aa" d="M1166.17,137.63c-1.36-1.36.82-3.47,2.14-2.06S1167.49,139,1166.17,137.63Z"/><path class="aa" d="M1153.61,139.31c-1.37-1.37.81-3.48,2.13-2.07S1154.93,140.71,1153.61,139.31Z"/><path class="aa" d="M1161.09,150.48c-2.51.4-6.16-.25-3.78-3.27,2.24-2.28,2.5-8.45,2.5-8.52a.57.57,0,0,1,1.13.05c0,.27-.28,6.67-2.82,9.26-.29.29-.59.7-.38.95.6.7,3.43.82,5.06-.31a.55.55,0,0,1,.78.14C1164,150,1162,150.21,1161.09,150.48Z"/><path class="z" d="M1203.79,132.39c1.38,9.85,1.47,21.41-4,29.91h0c2.54-6.37,1.59-18.58,1.59-18.58l-3.51-4.48c-35.84-.47-41.11-27.52-41.11-27.52C1172.46,90.56,1201.92,109.67,1203.79,132.39Z"/><path class="x" d="M1159.46,108.33s5.33,26.62,37.77,28.23l8.69-9C1210,104.38,1182.41,80.65,1159.46,108.33Z"/><path class="t" d="M1211.21,135.29c1.15,11.28-13.09,12.57-14,1.27C1196.08,125.29,1210.32,124,1211.21,135.29Z"/><path class="aa" d="M1207.86,132.38h0c-1.45-4.47-10,.3-6.39.47,0-.2,3.82-2.48,5-.5-3.75,1.77-5,8.77-2.83,6.51,0-.05.45-4,3.41-5.54C1208.52,143.5,1209.86,136.44,1207.86,132.38Z"/><path class="aj" d="M1206.85,142a1.26,1.26,0,0,1-2.41.74A1.26,1.26,0,0,1,1206.85,142Z"/><path class="ab" d="M1171.13,234.86c0,3.27-5.08,3.27-5,0S1171.18,231.6,1171.13,234.86Z"/><path class="ab" d="M1166.19,252.59c0,3.26-5.09,3.26-5,0S1166.23,249.32,1166.19,252.59Z"/><path class="ab" d="M1166.19,268.53c0,3.27-5.09,3.27-5,0S1166.23,265.27,1166.19,268.53Z"/><path class="ab" d="M1079.69,541.26c.46,7.91.88,12.68.88,12.68-28.46,9.17-43.77,0-43.77,0s-.8-4-2-10.81C1035.12,543.3,1053,552.1,1079.69,541.26Z"/><path class="ab" d="M1143,553.94c-28.46,9.17-43.77,0-43.77,0s-1-3.66-2.65-10c0,0,15.78,8.17,44.94,0C1142.38,550.21,1143,553.94,1143,553.94Z"/><path class="z" d="M1160.09,335.16c-5.6.17,14.79-13.81,20.87-10.39a.9.9,0,0,1-.8,1C1168.69,327,1161.06,335.13,1160.09,335.16Z"/><path class="z" d="M1168.73,335.48c-4.25-1.82,9-4.93,15.49-6.69a.89.89,0,1,1,.36,1.75C1177.62,332,1169.43,335.4,1168.73,335.48Z"/><path class="aa" d="M1170.84,133.07a.64.64,0,0,1-.39-.14,8.15,8.15,0,0,0-7-1.85.63.63,0,0,1-.79-.43.64.64,0,0,1,.42-.79,9.4,9.4,0,0,1,8.13,2.07.64.64,0,0,1-.4,1.14Z"/><path class="aa" d="M1152.12,134.6a.68.68,0,0,1-.36-.1.64.64,0,0,1-.17-.89c.09-.12,2.07-3,5.38-2.89a.64.64,0,1,1,0,1.27,5.57,5.57,0,0,0-4.27,2.33A.62.62,0,0,1,1152.12,134.6Z"/><path class="aa" d="M1165.89,156.5a2.5,2.5,0,0,1-2-.9c-1-1.28-.33-3.38,1.49-4.79s4-1.51,5-.23h0c1,1.28.33,3.38-1.49,4.79A5,5,0,0,1,1165.89,156.5Zm2.44-5.54a3.71,3.71,0,0,0-2.2.86c-1.32,1-1.72,2.4-1.26,3s1.91.56,3.23-.46,1.72-2.4,1.26-3h0A1.26,1.26,0,0,0,1168.33,151Z"/><path class="ad" d="M2186.51,1157.2c-1.05.55,13.07.44,12.16,1.49-29.74,25.72-74.1,33.86-107,8.81v0c-9.79-7.17-19.69-18.7-26.57-30.76l8.08-13.11c64.18,39.59,89.59-28,141.78-33.23l-10.45,15.25Z"/><path class="t" d="M2257.77,1609.77l1-.51c0,.68.85,3.06,1.54,3.06l28.95.6c.69,0,1.11-1.29,1.11-2l2.47-.7c0-4.34-.35-5.91-2.27-9.27-7-9.36,1.36-51.21,1.12-62.14,1.74-3-30.5-.65-31-1.35a1.24,1.24,0,0,0-1.23,1.34l3.79,47.82C2265,1595.72,2258,1601.21,2257.77,1609.77Z"/><path class="t" d="M2132.24,1613.93h57.68c5-.2,5-5.33,4.07-9.32-3.18-14.35,2.44-47.31,3.48-62.08a4.59,4.59,0,0,0-4.56-5h-25.46a4.59,4.59,0,0,0-4.55,5.16l4.63,36.91c2.51,16-16.62,19.1-27.52,20.87C2132.83,1600.94,2120.82,1610.74,2132.24,1613.93Z"/><path class="f" d="M2196.19,1608c-.16,2.83-1.56,6.06-4.84,6h-59.83c-14.11-5.24,7-24,34.66-23.85C2185.82,1595.48,2196.85,1580.17,2196.19,1608Z"/><path class="f" d="M2288.23,1613.94h-25.57c-12.46-1.71-3.48-25.62,12.78-23.89C2291.76,1588,2300.69,1612.26,2288.23,1613.94Z"/><path class="ab" d="M2127.33,1608h68.86a16,16,0,0,1-1.89,6h-62.78A4.45,4.45,0,0,1,2127.33,1608Z"/><path class="ab" d="M2288.23,1613.94h-25.57a5.67,5.67,0,0,1-5.67-6h36.92A5.68,5.68,0,0,1,2288.23,1613.94Z"/><path class="ad" d="M2206.92,1024.55s-.3-18.7,16.6-22l8.86,9.19Z"/><path class="h" d="M2295.71,1581.3s-27.28,6.63-41.33-.49c-7.32-45.87-27.62-173.57-34.69-261.09-.27,5.11-15.13,210.9-18,261.09-9.7,3.24-29.21,7.16-40.13-.7-4.9-52.83-20.65-226.76,3.07-368.81,0,0,65,7.23,115.76-8.11C2294.41,1248.25,2298.11,1527.23,2295.71,1581.3Z"/><path class="ak" d="M2295.41,1570.91a99.66,99.66,0,0,1-21.21,2.38c-2.85-155.11-25.8-301.36-29.29-301.92-2.61,2,19.93,146.53,29.19,301.92a83,83,0,0,1-21.32-2.38c1,6.35,1.6,9.9,1.6,9.9,14,7.12,41.33.49,41.33.49C2295.62,1580.79,2295.52,1577.1,2295.41,1570.91Z"/><path class="ak" d="M2201.74,1580.81c-.23-4.41,18-261.09,18-261.09s-8.59,4.59-10.63,31.84c-1.77,23.7-12.36,181.17-15.1,221.89a58,58,0,0,1-21.93.59c-6.48-151.11,8.69-280.73,6.41-282.28-4,.32-19.27,131.09-6.48,282.27a48.37,48.37,0,0,1-11.26-3.12c.56,6,.91,9.2.91,9.2,8.94,6.44,23.65,5,34,2.45,2.62-.61,4.63-1.26,5.55-1.57Z"/><path class="t" d="M2214.47,1089.85c-1.42-12.37.51-30.21,2.24-37.55,3.11-14.49,26.07-8.88,22.26,5.35-.74-.46-3.11,25.78-1.48,33.06C2259,1097.18,2194.23,1118.44,2214.47,1089.85Z"/><path class="z" d="M2239.19,1056.46c-.06.4-.13.8-.22,1.19-.54-.35-2,14.13-2,24.64-9.87,4.49-20.88,2.51-22.89,2.1-.22-13.31,1-25.44,3-33.06C2221,1038.45,2241.23,1043.14,2239.19,1056.46Z"/><path class="t" d="M2254.5,1051.06c-3.27,9.89-8.54,20.79-17.64,26.22h0a25.71,25.71,0,0,1-12.21,3.4c-24.32,3.28-48.27-29.82-26.39-46.3a30.48,30.48,0,0,0,8.68-9.83C2226.42,987,2266.4,1016.46,2254.5,1051.06Z"/><path class="al" d="M2203.74,1055l14.42-4.66C2218.23,1058.46,2208.61,1062.39,2203.74,1055Z"/><path class="u" d="M2172.28,1142.17l-10,36.73c-21.44,6.58-44.3,5.09-64.47-7.28,22.17,12.52,52.64,5.46,57.44-1.9C2160.3,1161.93,2171.59,1143.3,2172.28,1142.17Z"/><path class="ad" d="M2289.9,1264.52q-3.48,4.23-7.42,8.49s-12.77,2.4-22.77-10.9c40.78-86.46-38-94.53-22.22-171.4C2290.1,1096.92,2363.29,1175.44,2289.9,1264.52Z"/><path class="aa" d="M2216.74,1038.56a1.56,1.56,0,0,1,3-1A1.56,1.56,0,0,1,2216.74,1038.56Z"/><path class="aa" d="M2204.16,1034.31a1.56,1.56,0,0,1,3-1A1.56,1.56,0,0,1,2204.16,1034.31Z"/><path class="z" d="M2254.5,1051.06c-3.27,9.89-8.54,20.79-17.64,26.22h0a24.37,24.37,0,0,1-2.33,1.2c7.08-5.08,12.71-17.51,12.71-17.51l.33-11.24c-8.25-11.57-2.2-22.12-2.2-22.12-17.23,2-21.15-9.09-21.15-9.09-5.32-.17-10.37-3.67-10.37-3.67C2237.52,991.09,2264.77,1025,2254.5,1051.06Z"/><path class="aa" d="M2203.74,1055.55c.33-.36,15.72-4.3,15-5.43.29-1.44-14.87,4.49-15.16,4.28A.59.59,0,0,0,2203.74,1055.55Z"/><path class="aa" d="M2207.91,1048.55c1,.32,1.88-1.1.56-1.22-2.07.39-6.6-1.74-4.1-2.77,3.58-1.22,9.17-9.42,5.91-8,0,.06-3.14,5.73-6.3,6.84C2199.66,1045.6,2204.92,1048.56,2207.91,1048.55Z"/><path class="u" d="M2289.9,1264.52q-3.48,4.23-7.42,8.49s-13,1.82-23-11.48c1.47-3.57,3.1-5.89,4.35-9.44C2263.82,1252.09,2271.54,1260.74,2289.9,1264.52Z"/><path class="ak" d="M2283.4,1274.72c2.75.83,5.65-2.43,1.91-3.38-20.24.89-25.63-12.47-25.85-13C2250.68,1253.36,2261.46,1275.94,2283.4,1274.72Z"/><path class="aj" d="M2155.23,1272.36s4,17,35.74,25.43c9.1,2.41,14.36,1.22,15.69-5.09.67-3.17,2.4-8.68,5.58-10.73,0,0,7.11,3.07,9.8,7.43,5.88,9.55,14.74.87,19.05-9.12,5.34-12.36,18.85-22.84,21.81-33.21Z"/><path class="ad" d="M2284.7,1251.31c-1,1.83-1.66,1.54-2.71.48-28.54-21.32-38.76,25.26-69.52,26.09-31.3,3.1-48.72,4.87-57.24-5.52-14.89-23.08,8.79-126.22,27.94-151.2,8.39-13,23.27-24.56,31.28-31.3-.16.68-4.43,18.42,23,.85,1.38.58,10.09,9.08,9.54,13.63C2248.43,1125.22,2298,1227.85,2284.7,1251.31Z"/><path class="ad" d="M2205.43,997.9a28.47,28.47,0,0,1,16.31,1,15.88,15.88,0,0,1,6-8.31,53.55,53.55,0,0,0,5.44,10.86,29,29,0,0,1,5.15-13c1.18,6.85,10.65,11.78,15.12,19.2l.24-.35s25,9,7,31.19h0c-.74,8.21-4.75,16.51-4.75,16.51-13.26-12.11-10.4-26.67-4.38-30.45-10.8,3.83-20.43-.71-25.86-7.88C2217.66,1015.41,2207.83,1011,2205.43,997.9Z"/><path class="u" d="M2268.18,1257.87l-6.26-1.3c25-56.33-4.41-80.14-20-111.87C2278,1186.47,2283.5,1209.36,2268.18,1257.87Z"/><path class="t" d="M2260.13,1057.23c-4.14,11.12-18.12,5.73-13.73-5.29C2250.54,1040.82,2264.52,1046.2,2260.13,1057.23Z"/><path class="aa" d="M2256.17,1059c2.56-2.67,2.56-7.16,1.39-8.41-2.12-2.18-6.14-1.92-6.15-.66.54,1.28,3.27-.81,5.22,1.39C2258.74,1053,2254.53,1058.35,2256.17,1059Z"/><path class="aa" d="M2250.87,1057.34c.9-.06,2.36-4.14,6.82-3.88a.58.58,0,0,0,.64-.53C2255.43,1050,2248.24,1057.4,2250.87,1057.34Z"/><path class="aj" d="M2245.94,1092.22c.15,10.48-26.73,19.73-28.26,19.74l-3.22-9.53c-4.14,1-7.78,6.81-7.78,6.81-11.92-11.36-.71-21.26,7.78-19.39h0c-.16.68-2,16.23,22.94.31C2240.61,1088.68,2245.94,1092.22,2245.94,1092.22Z"/><path class="u" d="M2080.26,1127.32c0,8.37-11.43,15.43-11.43,15.43-1.28-1.93-2.55-4-3.75-6l8.08-13.11C2075.6,1125,2078,1126.19,2080.26,1127.32Z"/><path class="t" d="M2061.29,1100c-3.13,2,2,8.2,1.61,11.57a49.61,49.61,0,0,1-9.76-6.24c-4.45-5.48-8.59-11.19-12.48-17.1-9.58-4.38,5.62,17.31,6.76,20l-.07.08a160,160,0,0,1-16.32-15c-10.78-2.25,11,17.58,12.93,19.94l0,0a92.65,92.65,0,0,1-17.1-12.42c-11-1.3,12.56,17.14,15.19,18.79l0,.09c-4.68-.63-14.31-9.28-17.4-7.19-2.93,4.75,28.69,21.78,39.77,23.92,4,1.09,9.74-8.93,8.76-12.88-.91-3.69-3.46-8.21-4.34-9.87C2067.42,1109.88,2065.88,1100.35,2061.29,1100Z"/><path class="af" d="M2091.61,1167.39c.33.26.66.51,1,.8-.33-.25-.62-.47-.95-.69v0A.12.12,0,0,1,2091.61,1167.39Z"/><path class="aa" d="M2225.17,1038.16a.67.67,0,0,1-.66-.51c0-.17-1.18-4.29-7.46-6.42a.68.68,0,0,1-.42-.86.67.67,0,0,1,.86-.42c7,2.39,8.28,7.17,8.33,7.37a.68.68,0,0,1-.49.82Z"/><path class="aa" d="M2204.85,1029.42a.65.65,0,0,1-.51-.24.68.68,0,0,1,.07-1c3.38-2.86,8-.57,8.18-.47a.68.68,0,0,1-.61,1.21s-4-2-6.69.29A.66.66,0,0,1,2204.85,1029.42Z"/></svg>